<svg width="350" height="150" viewBox="0 0 350 150" fill="none" xmlns="http://www.w3.org/2000/svg">
<g clip-path="url(#clip0_2254_186)">
<rect width="350" height="150" rx="10" fill="url(#paint0_linear_2254_186)"/>
<path d="M194.28 72.0352C186.83 86.4352 188.016 104.426 195.523 118.782C203.03 133.139 216.273 143.992 231.067 150.602C245.861 157.211 262.171 159.837 278.357 160.518C287.957 160.917 297.605 160.653 307.085 159.112C317.937 157.341 328.781 153.75 337.243 146.728C343.142 141.832 347.649 135.477 351.605 128.915C360.446 114.242 366.835 98.2432 373.205 82.3264C376.334 74.4832 379.483 66.5872 381.259 58.3264C384.619 42.6208 382.776 25.6864 375.23 11.5024C367.685 -2.68159 354.288 -13.8512 338.76 -17.9024C328.473 -20.5808 317.539 -20.168 307.181 -17.7728C300.136 -16.1451 293.327 -13.6255 286.92 -10.2752C271.305 -2.11519 259.008 10.9312 245.592 21.9856C239.697 26.848 235.123 33.2848 229.118 38.2048C223.041 43.192 216.605 47.7328 210.619 52.8304C204.173 58.3072 198.173 64.48 194.28 72.0352Z" fill="black"/>
<path opacity="0.5" d="M194.28 72.0352C186.83 86.4352 188.016 104.426 195.523 118.782C203.03 133.139 216.273 143.992 231.067 150.602C245.861 157.211 262.171 159.837 278.357 160.518C287.957 160.917 297.605 160.653 307.085 159.112C317.937 157.341 328.781 153.75 337.243 146.728C343.142 141.832 347.649 135.477 351.605 128.915C360.446 114.242 366.835 98.2432 373.205 82.3264C376.334 74.4832 379.483 66.5872 381.259 58.3264C384.619 42.6208 382.776 25.6864 375.23 11.5024C367.685 -2.68159 354.288 -13.8512 338.76 -17.9024C328.473 -20.5808 317.539 -20.168 307.181 -17.7728C300.136 -16.1451 293.327 -13.6255 286.92 -10.2752C271.305 -2.11519 259.008 10.9312 245.592 21.9856C239.697 26.848 235.123 33.2848 229.118 38.2048C223.041 43.192 216.605 47.7328 210.619 52.8304C204.173 58.3072 198.173 64.48 194.28 72.0352Z" fill="black"/>
<path d="M334.32 43.5134H381.461" stroke="#141518" stroke-width="0.48" stroke-linecap="round" stroke-linejoin="round"/>
<path d="M295.584 -22.9233V15.2751" stroke="#141518" stroke-width="0.48" stroke-linecap="round" stroke-linejoin="round"/>
<path d="M228.37 43.5134H200.055" stroke="#141518" stroke-width="0.48" stroke-linecap="round" stroke-linejoin="round"/>
<path d="M335.822 23.5551L353.913 5.46387" stroke="#141518" stroke-width="0.48" stroke-linecap="round" stroke-linejoin="round"/>
<path d="M346.516 5.91519L355.559 -3.13281" stroke="#141518" stroke-width="0.48" stroke-linecap="round" stroke-linejoin="round"/>
<path d="M187.166 106.187L205.257 88.0911" stroke="#141518" stroke-width="0.48" stroke-linecap="round" stroke-linejoin="round"/>
<path d="M197.855 88.5424L206.903 79.4944" stroke="#141518" stroke-width="0.48" stroke-linecap="round" stroke-linejoin="round"/>
<path d="M337.469 14.9582L343.229 9.19824" stroke="#141518" stroke-width="0.48" stroke-linecap="round" stroke-linejoin="round"/>
<path d="M311.021 -3.14233L312.169 0.563263C312.234 0.8006 312.35 1.02109 312.508 1.20987C312.666 1.39866 312.863 1.55135 313.085 1.65767L316.201 3.04006L313.105 4.40806C312.883 4.51489 312.686 4.66775 312.528 4.85646C312.37 5.04516 312.254 5.26539 312.188 5.50246L311.041 9.20806L309.893 5.50246C309.828 5.2657 309.713 5.04563 309.555 4.85691C309.398 4.66819 309.202 4.51518 308.981 4.40806L305.861 3.04006L308.962 1.66726C309.184 1.56093 309.38 1.40816 309.537 1.21933C309.695 1.0305 309.81 0.810021 309.874 0.572865L311.021 -3.14233Z" fill="white"/>
<path d="M325.719 13.0144L326.828 16.4944C326.893 16.7187 327.006 16.9265 327.158 17.1037C327.31 17.2808 327.499 17.4233 327.711 17.5216L330.711 18.808L327.72 20.0992C327.508 20.1969 327.319 20.3393 327.167 20.5165C327.014 20.6938 326.902 20.9018 326.837 21.1264L325.728 24.6064L324.62 21.1264C324.554 20.9015 324.441 20.6933 324.287 20.5161C324.134 20.3388 323.945 20.1966 323.732 20.0992L320.736 18.808L323.732 17.5216C323.944 17.4234 324.133 17.2809 324.286 17.1038C324.439 16.9267 324.553 16.7189 324.62 16.4944L325.719 13.0144Z" fill="white"/>
<path opacity="0.7" d="M332.478 -1.80786L332.843 -0.660662C332.865 -0.586502 332.903 -0.517838 332.953 -0.459125C333.004 -0.400412 333.066 -0.352963 333.136 -0.319862L334.125 0.102537L333.136 0.529736C333.066 0.562837 333.004 0.610286 332.953 0.668999C332.903 0.727712 332.865 0.79638 332.843 0.87054L332.478 2.01774L332.114 0.87054C332.092 0.795976 332.055 0.72691 332.005 0.668084C331.954 0.609257 331.891 0.56206 331.821 0.529736L330.832 0.102537L331.821 -0.319862C331.891 -0.352186 331.954 -0.399379 332.005 -0.458206C332.055 -0.517032 332.092 -0.586098 332.114 -0.660662L332.478 -1.80786Z" fill="white"/>
<path d="M337.471 89.9775L338.579 93.4575C338.645 93.6825 338.758 93.8906 338.911 94.0679C339.065 94.2451 339.254 94.3873 339.467 94.4847L342.463 95.7759L339.467 97.0623C339.255 97.1606 339.066 97.303 338.912 97.4801C338.759 97.6573 338.646 97.865 338.579 98.0895L337.471 101.57L336.362 98.0799C336.296 97.856 336.183 97.6487 336.03 97.4716C335.878 97.2945 335.69 97.1518 335.479 97.0527L332.479 95.7663L335.479 94.4751C335.69 94.3766 335.879 94.234 336.031 94.0569C336.183 93.8798 336.296 93.6721 336.362 93.4479L337.471 89.9775Z" fill="white"/>
<path d="M283.081 2.01758L283.916 4.92638C283.961 5.10807 284.044 5.27829 284.159 5.42622C284.274 5.57415 284.418 5.69653 284.583 5.78558L286.834 6.86558L284.583 7.94078C284.418 8.02982 284.274 8.1522 284.159 8.30013C284.044 8.44806 283.961 8.61829 283.916 8.79998L283.081 11.7088L282.25 8.79998C282.205 8.61829 282.122 8.44806 282.007 8.30013C281.892 8.1522 281.748 8.02982 281.583 7.94078L279.332 6.87998L281.583 5.79998C281.748 5.71093 281.892 5.58855 282.007 5.44062C282.122 5.29269 282.205 5.12247 282.25 4.94078L283.081 2.01758Z" fill="white"/>
<path d="M251.636 100.48C251.636 100.48 243.346 90.3086 242.761 86.939L236.367 90.299L213.063 90.1166C211.89 88.1306 210.818 86.0864 209.852 83.9918C208.93 81.7598 208.551 77.8814 213.778 76.8302C213.778 76.8302 216.855 71.3294 217.964 66.923C219.073 62.5166 217.369 57.6062 219.006 54.3374C220.642 51.0686 221.329 50.1998 224.079 48.5774C226.83 46.955 232.825 42.8174 235.537 41.1086C238.347 39.3164 241.389 37.9193 244.58 36.9566C247.556 36.1262 270.61 23.5166 270.61 23.5166L271.647 25.2302L271.47 23.5166L274.786 25.7726C274.786 25.7726 277.249 26.1998 281.905 24.5486C286.561 22.8974 295.916 17.5598 302.18 20.411C308.444 23.2622 317.842 33.203 320.694 36.1598C323.545 39.1166 329.583 45.1886 331.081 49.667C332.578 54.1454 335.727 56.8238 337.321 58.5902C338.914 60.3566 346.522 66.3806 341.372 74.0654C336.222 81.7502 316.988 75.8318 316.988 75.8318C316.988 75.8318 317.862 71.2862 319.695 68.3294C318.778 66.3194 317.613 64.4314 316.23 62.7086C313.911 59.8286 305.9 50.7662 301.302 48.6062C296.703 46.4462 278.42 89.1326 278.42 89.1326L274.695 87.7646L274.062 93.5246C274.062 93.5246 255.01 98.1086 251.636 100.48Z" fill="#2C78B2"/>
<path opacity="0.2" d="M297.062 31.1294C302.683 30.4478 308.347 33.0494 312.423 36.9614C316.498 40.8734 319.176 46.0478 321.298 51.299C322.81 55.0517 324.074 58.9 325.08 62.819C328.781 61.787 333.216 61.499 336.936 62.4398C334.373 63.155 331.752 63.3422 328.819 64.5038C331.656 64.5278 334.541 64.9406 337.075 66.2174C339.61 67.4942 341.751 69.731 342.442 72.4814C342.504 72.7454 342.413 73.1582 342.154 73.0766L338.477 78.2462L316.992 77.387C316.992 77.387 316.349 73.547 319.699 68.3918C318.094 65.0846 315.999 62.039 313.483 59.3582C309.115 54.5822 302.174 49.4606 302.174 49.4606L297.062 31.1294Z" fill="black"/>
<path opacity="0.2" d="M211.12 86.9393C211.12 86.9393 207.28 79.6481 216.577 77.3873C216.577 77.3873 219.285 75.1745 220.129 72.1073C220.974 69.0401 221.089 52.1825 233.569 49.9505C246.049 47.7185 252.035 45.0593 255.078 36.7505C258.121 28.4417 275.934 35.2001 275.934 35.2001L283.758 75.5585L274.062 93.5489L251.637 100.48C251.637 100.48 242.997 89.3969 240.779 82.3553C238.561 75.3137 222.333 87.4673 222.333 87.4673L214.211 90.9473L211.12 86.9393Z" fill="black"/>
<path d="M310.288 91.3598L304.461 91.0959L302.762 87.1262L301.97 87.9279L300.621 82.4126C300.621 82.4126 308.392 80.387 314.008 76.3646C320.704 72.5246 332.575 67.139 340.783 71.9246C340.783 71.9246 340.557 75.2559 340.303 77.3295C340.048 79.4031 339.367 82.6094 333.41 85.8062L312.933 90.275" fill="white"/>
<path d="M260.617 9.99506L252.865 3.80786L244.124 11.6319L233.564 17.6367L236.219 29.7423C236.219 29.7423 242.008 36.8847 244.58 39.7071C247.153 42.5295 246.808 42.7119 250.019 44.0271C253.23 45.3423 260.838 45.8559 260.838 45.8559C262.181 45.4017 263.47 44.7979 264.678 44.0559C266.675 42.8319 267.241 38.9103 267.241 38.9103L270.241 36.2223L270.654 31.3983C271.482 29.2477 271.793 26.9326 271.561 24.6399L267.169 18.7119C267.169 18.7119 268.609 18.8223 269.046 17.6319C269.483 16.4415 269.776 13.5039 269.776 13.5039C269.776 13.5039 269.824 12.0639 267.702 9.14546C265.58 6.22706 265.398 5.19026 262.667 5.90546C259.936 6.62066 260.617 9.99506 260.617 9.99506Z" fill="white"/>
<path d="M274.061 84.904C273.495 83.7856 267.557 76.024 265.421 74.2288C265.421 74.2288 253.762 69.352 251.189 70.0576L243.658 72.3424C243.658 72.3424 234.759 74.968 232.618 76.0864C230.477 77.2048 226.916 78.0736 222.888 79.0192C218.861 79.9648 214.032 80.5792 213.322 83.9296C212.612 87.28 212.132 92.656 213.173 96.0976C213.173 96.0976 213.13 99.5296 213.72 100.461C214.311 101.392 219 101.848 223.215 99.7648C227.429 97.6816 232.719 94.2928 236.362 90.3232L246.068 85.8784L252.231 90.928L255.74 91.6384L258.86 89.536L261 90.928H262.853L263.362 88.288L258.86 82.5904L268.133 88.288L269.991 86.9392L269.391 83.4832L272.751 86.9392C272.751 86.9392 274.628 86.0272 274.061 84.904ZM262.748 78.5008L265.191 79.1968L267.644 82.2256L262.748 78.5008Z" fill="white"/>
<path d="M257.67 28.4318C258.27 29.1998 258.447 30.0734 258.059 30.3518C257.67 30.6302 256.873 30.275 256.268 29.5022C255.663 28.7294 255.491 27.8606 255.879 27.5822C256.268 27.3038 257.065 27.659 257.67 28.4318Z" fill="#141518"/>
<path d="M247.603 34.1247C248.203 34.8975 248.381 35.7663 247.992 36.0687C247.603 36.3711 246.807 35.9871 246.202 35.2143C245.597 34.4415 245.424 33.5727 245.813 33.2703C246.202 32.9679 246.999 33.3519 247.603 34.1247Z" fill="#141518"/>
<path d="M260.617 37.9791C260.617 37.9791 263.017 36.3855 262.057 32.4111" stroke="#141518" stroke-width="0.48" stroke-linecap="round" stroke-linejoin="round"/>
<path d="M252.506 26.123C252.999 25.1905 253.739 24.4113 254.644 23.8704C255.55 23.3295 256.587 23.0478 257.642 23.0558" stroke="#141518" stroke-width="0.96" stroke-linecap="round" stroke-linejoin="round"/>
<path d="M246.395 30.3184C245.539 30.6449 244.767 31.1595 244.137 31.8241C243.506 32.4887 243.033 33.2864 242.752 34.1584" stroke="#141518" stroke-width="0.96" stroke-linecap="round" stroke-linejoin="round"/>
<path d="M248.521 31.8831C250.812 33.4365 252.561 35.6668 253.523 38.2623C254.646 38.6175 255.821 38.7798 256.998 38.7423L257.257 35.7423" stroke="#141518" stroke-width="0.48" stroke-linecap="round" stroke-linejoin="round"/>
<path d="M231.447 18.8079C231.447 18.8079 231.447 23.6079 233.905 26.7471C236.18 29.6751 240.874 35.0415 241.556 35.8239C241.611 35.8845 241.663 35.9486 241.71 36.0159C242.257 36.7695 245.814 41.5983 247.825 43.1055C249.625 44.4543 257.698 45.5055 260.492 45.8175C261.107 45.8877 261.728 45.7581 262.263 45.4479L264.663 44.0367C265.24 43.7006 265.68 43.1721 265.906 42.5439L268.402 35.6799C268.516 35.3725 268.575 35.0475 268.575 34.7199V30.5487C268.576 30.2024 268.512 29.859 268.388 29.5359L265.388 21.6543" stroke="#141518" stroke-width="0.48" stroke-linecap="round" stroke-linejoin="round"/>
<path d="M267.24 18.8079C267.24 18.8079 268.157 20.9583 271.56 24.6495" stroke="#141518" stroke-width="0.48" stroke-linecap="round" stroke-linejoin="round"/>
<path d="M301.734 82.1344C301.734 82.1344 308.195 79.888 312.741 77.08C317.286 74.272 332.128 67.0576 341.061 71.7328L340.902 72.5824C340.635 74.087 340.521 75.6148 340.562 77.1424C340.614 79.8736 339.381 82.2256 333.664 85.6192C326.522 86.512 310.581 91.192 310.581 91.192" stroke="#141518" stroke-width="0.48" stroke-linecap="round" stroke-linejoin="round"/>
<path d="M246.232 86.2288C244.086 86.6224 240.856 89.2192 239.805 91.1344C238.754 93.0496 238.134 95.176 237.078 97.0864C235.805 99.3723 233.944 101.276 231.688 102.602C228.75 104.32 225.179 105.035 222.726 107.402C221.482 108.658 220.543 110.184 219.981 111.861C218.53 115.869 218.655 120.279 220.33 124.199C222.005 128.12 225.105 131.258 229.005 132.981" stroke="#141518" stroke-width="0.96" stroke-linecap="round" stroke-linejoin="round"/>
<path d="M247.59 71.3679C247.59 71.3679 235.935 73.9839 231.447 76.7151C226.959 79.4463 214.811 78.4911 213.169 84.3567C211.527 90.2223 213.169 96.0975 213.169 96.0975C213.169 96.0975 212.761 99.5199 213.716 100.48C214.671 101.44 224.502 102.942 235.83 90.6591C235.83 90.6591 242.521 86.5935 245.934 86.3055" stroke="#141518" stroke-width="0.48" stroke-linecap="round" stroke-linejoin="round"/>
<path d="M245.934 72.7503C245.934 72.7503 249.058 69.3471 252.466 70.1967C255.874 71.0463 263.823 73.0767 265.426 74.2287C267.03 75.3807 273.86 83.5407 274.066 84.9039C274.273 86.2671 272.766 86.9391 272.766 86.9391L265.191 79.1967L260.622 77.7567" stroke="#141518" stroke-width="0.48" stroke-linecap="round" stroke-linejoin="round"/>
<path d="M262.115 78.2224L269.387 83.5024L269.987 86.9536L268.129 88.3024C268.129 88.3024 260.584 83.272 257.742 82.0624" stroke="#141518" stroke-width="0.48" stroke-linecap="round" stroke-linejoin="round"/>
<path d="M258.126 82.2256L263.358 88.288L262.849 90.928H260.996L252.227 85.2256" stroke="#141518" stroke-width="0.48" stroke-linecap="round" stroke-linejoin="round"/>
<path d="M239.4 83.2527C239.943 84.7983 242.712 85.0191 244.94 85.4271C247.167 85.8351 252.236 90.9279 252.236 90.9279L255.749 91.6383L258.864 89.5359" stroke="#141518" stroke-width="0.48" stroke-linecap="round" stroke-linejoin="round"/>
<path d="M244.57 72.1023C244.57 72.1023 242.046 60.8943 236.986 54.6975" stroke="#141518" stroke-width="0.48" stroke-linecap="round" stroke-linejoin="round"/>
<path d="M245.934 71.4831C245.934 71.4831 248.497 65.8335 244.57 57.8127" stroke="#141518" stroke-width="0.48" stroke-linecap="round" stroke-linejoin="round"/>
<path d="M242.761 37.408C237.52 38.752 230.761 45.1744 223.081 49.1488C217.403 52.0816 218.579 59.2528 218.281 64.648C217.984 70.0432 213.774 76.8544 213.774 76.8544C213.774 76.8544 209.973 77.6992 209.411 80.752C208.849 83.8048 212.459 89.2432 212.459 89.2432" stroke="#141518" stroke-width="0.48" stroke-linecap="round" stroke-linejoin="round"/>
<path d="M242.762 87.448C242.762 87.448 247.73 97.7296 251.647 100.053" stroke="#141518" stroke-width="0.48" stroke-linecap="round" stroke-linejoin="round"/>
<path d="M230.017 77.3871C230.017 77.3871 224.223 74.7519 218.977 75.8031" stroke="#141518" stroke-width="0.48" stroke-linecap="round" stroke-linejoin="round"/>
<path d="M231.448 76.7151C229.893 74.9487 224.521 73.5999 224.521 73.5999" stroke="#141518" stroke-width="0.48" stroke-linecap="round" stroke-linejoin="round"/>
<path d="M315.846 31.7439C315.846 31.7439 328.326 42.1215 331.686 51.1935C334.321 58.3263 348.85 64.9935 340.83 74.7999" stroke="#141518" stroke-width="0.48" stroke-linecap="round" stroke-linejoin="round"/>
<path d="M316.988 74.8C317.283 72.7793 317.996 70.8421 319.081 69.112C320.953 65.9296 330.563 65.272 335.838 66.9472" stroke="#141518" stroke-width="0.48" stroke-linecap="round" stroke-linejoin="round"/>
<path d="M266.454 50.3152C266.454 50.581 266.375 50.8409 266.227 51.0619C266.079 51.2829 265.87 51.4552 265.624 51.5569C265.378 51.6586 265.108 51.6852 264.847 51.6334C264.587 51.5815 264.347 51.4535 264.159 51.2655C263.971 51.0776 263.843 50.8381 263.791 50.5774C263.74 50.3167 263.766 50.0464 263.868 49.8009C263.97 49.5553 264.142 49.3454 264.363 49.1977C264.584 49.05 264.844 48.9712 265.11 48.9712C265.466 48.9712 265.808 49.1128 266.06 49.3648C266.312 49.6169 266.454 49.9587 266.454 50.3152Z" fill="#141518"/>
<path d="M267.797 58.5999C267.797 58.8657 267.719 59.1255 267.571 59.3466C267.423 59.5676 267.213 59.7398 266.968 59.8416C266.722 59.9433 266.452 59.9699 266.191 59.918C265.93 59.8662 265.691 59.7382 265.503 59.5502C265.315 59.3623 265.187 59.1228 265.135 58.8621C265.083 58.6014 265.11 58.3311 265.212 58.0855C265.313 57.8399 265.486 57.63 265.707 57.4824C265.928 57.3347 266.188 57.2559 266.453 57.2559C266.81 57.2559 267.152 57.3975 267.404 57.6495C267.656 57.9016 267.797 58.2434 267.797 58.5999Z" fill="#141518"/>
<path d="M261.069 14.8384L260.829 8.99195C260.806 8.49448 260.93 8.0012 261.186 7.57415C261.442 7.14711 261.819 6.80538 262.269 6.59195L263.229 6.14555C263.789 5.88266 264.427 5.83522 265.02 6.01227C265.613 6.18932 266.12 6.57849 266.445 7.10555L269.407 11.9343C269.692 12.4035 269.818 12.9524 269.767 13.4991L269.474 16.4415C269.415 17.0305 269.151 17.58 268.728 17.9941C268.305 18.4082 267.75 18.6606 267.16 18.7071L266.071 18.7936" stroke="#141518" stroke-width="0.48" stroke-linecap="round" stroke-linejoin="round"/>
<path d="M270.654 30.3184C272.166 27.8128 271.461 23.5552 271.461 23.5552L275.233 26.1232C275.233 26.1232 275.613 27.2848 275.233 29.8192" stroke="#141518" stroke-width="0.48" stroke-linecap="round" stroke-linejoin="round"/>
<path d="M275.535 26.08C279.473 25.4348 283.321 24.3246 286.998 22.7728C292.633 20.3728 296.924 17.7232 302.958 20.8528C306.217 22.5376 309.02 24.976 312.154 26.8576" stroke="#141518" stroke-width="0.48" stroke-linecap="round" stroke-linejoin="round"/>
<path d="M245.665 21.9327C245.665 21.9327 233.885 21.0975 229.858 17.2143C225.831 13.3311 226.047 1.97435 226.047 1.97435C226.357 3.31114 226.749 4.6273 227.223 5.91515C227.329 6.19355 227.444 6.46715 227.559 6.72155C228.423 8.58875 228.423 1.97435 228.423 1.97435L229.143 4.56155C229.143 4.56155 233.463 -3.05605 236.473 -5.07205C239.482 -7.08805 252.289 -6.65125 258.476 -4.20805L264.514 5.91995C264.514 5.91995 261.586 5.91995 261.049 7.86875C260.876 10.1727 261.049 13.7775 261.049 13.7775C257.658 12.4174 254.796 10.0002 252.889 6.88475C252.889 6.88475 250.196 16.4799 245.665 21.9327Z" fill="#141518"/>
<path d="M233.684 18.808C233.684 18.808 238.004 25.2688 236.823 30.328C236.823 30.328 233.554 25.576 232.647 24.568C231.049 22.8016 230.074 15.28 230.074 15.28L233.684 18.808Z" fill="#141518"/>
<path d="M321.055 67.1968C322.557 65.6608 324.602 64.7968 326.589 63.9904C328.332 63.2752 330.112 62.5504 331.994 62.416" stroke="#141518" stroke-width="0.48" stroke-linecap="round" stroke-linejoin="round"/>
<path d="M267.24 76.1008L275.136 77.32L275.856 88.5712L269.093 87.8176L269.986 86.9392L269.463 83.92L272.76 86.9392C273.151 86.762 273.481 86.4755 273.712 86.1143C273.943 85.7531 274.064 85.3327 274.061 84.904C274.152 83.3008 267.24 76.1008 267.24 76.1008Z" fill="#141518"/>
<path d="M267.644 82.2255L265.186 79.1967L262.748 78.5007L267.644 82.2255Z" fill="#141518"/>
<path d="M266.526 87.4479L261.582 86.2287L258.855 82.5903L266.526 87.4479Z" fill="#141518"/>
<path d="M268.751 65.9824C268.665 67.3306 269.1 68.6601 269.965 69.6976C270.821 70.5344 271.899 71.1076 273.071 71.3488C273.328 71.4474 273.602 71.4939 273.877 71.4857C274.152 71.4774 274.423 71.4146 274.674 71.3008C275.212 70.9744 275.37 70.2784 275.48 69.6592C275.96 66.9376 276.368 63.952 275 61.5568C274.492 60.6736 273.344 57.1312 272.351 56.9104C269.442 56.272 268.799 64 268.751 65.9824Z" fill="#141518"/>
<path d="M305.53 37.6001L307.623 46.9553C307.989 49.1007 307.789 51.3045 307.042 53.3489L307.483 56.7665L308.386 61.9457C308.386 61.9457 307.071 70.4705 304.296 74.3345C301.522 78.1985 301.215 76.7345 301.215 76.7345L302.271 87.7169C298.62 89.9186 294.465 91.145 290.203 91.2785C283.411 91.3649 275.856 88.5473 275.856 88.5473C275.821 84.7866 275.581 81.0306 275.136 77.2961C274.44 72.4913 273.571 67.3601 273.571 67.3601L270.912 64.0001L268.771 61.1201L267.24 56.1761L268.311 52.9217L268.863 52.3121C269.508 51.9752 270.191 51.7158 270.898 51.5393C271.733 51.3905 275.218 54.6977 275.218 54.6977L275.611 46.1057L276.447 36.9857L293.247 31.7393L301.699 34.3889L305.53 37.6001Z" fill="white"/>
<path d="M306.235 40.2976C306.235 40.2976 307.958 47.8144 307.838 48.7984C307.718 49.7824 307.041 54.3424 307.041 54.3424L308.337 61.4752C308.414 61.899 308.4 62.3344 308.294 62.752C307.733 64.984 305.717 72.4816 303.115 76.4368C300.033 81.1216 284.054 78.8656 280.728 76.4032L277.459 65.8192" stroke="#141518" stroke-width="0.48" stroke-linecap="round" stroke-linejoin="round"/>
<path d="M292.742 66.2559C292.742 66.2559 295.089 69.6159 298.608 69.0495" stroke="#141518" stroke-width="0.48" stroke-linecap="round" stroke-linejoin="round"/>
<path d="M273.57 67.3601C273.57 67.3601 276.1 80.0513 275.855 88.5761C275.855 88.5761 282.806 91.2257 289.492 91.3121C296.178 91.3985 302.279 87.7409 302.279 87.7409C301.756 84.4097 301.497 77.5169 301.497 77.5169" stroke="#141518" stroke-width="0.48" stroke-linecap="round" stroke-linejoin="round"/>
<path d="M275.634 55.4992C276.062 57.6352 277.074 59.5457 277.482 61.6769C277.56 62.2988 277.768 62.8974 278.092 63.4337C278.658 64.2353 280.569 64.0048 281.486 63.6592C281.553 63.6592 280.761 58.4465 280.742 57.7601C280.65 55.7459 280.955 53.7334 281.639 51.8369C282.292 50.1665 282.921 48.5632 282.748 46.7344C282.561 44.704 281.687 42.7888 280.794 40.9744C283.194 42.4281 285.962 43.1596 288.767 43.0816C293.159 42.8368 290.716 38.5697 290.716 38.5697C290.716 38.5697 303.278 42.2272 310.473 39.1792C317.668 36.1312 318.522 30.1552 316.713 27.3472C314.903 24.5392 303.556 28.2064 304.305 27.6928C305.265 27.0448 306.921 25.2928 306.479 24.016C306.401 23.8125 306.277 23.6298 306.116 23.4824C305.955 23.335 305.762 23.2268 305.553 23.1664C303.767 22.6096 301.036 24.1888 299.471 24.8992C297.383 25.8592 295.329 26.9008 293.106 27.4816C289.079 28.5424 284.889 28.5089 280.766 28.6481C278.817 28.7153 276.882 28.8592 274.948 29.0416C273.273 29.1952 271.406 29.3537 270.09 30.5297C270.049 30.5644 270.01 30.6029 269.975 30.6448C268.199 32.704 271.036 54.4001 271.036 54.4001L275.634 55.4992Z" fill="#141518"/>
<path d="M271.964 35.0897C271.964 35.0897 269.002 33.8369 267.063 35.6609C265.124 37.4849 268.431 54.6977 268.431 54.6977L272.468 54.6449L271.964 35.0897Z" fill="#141518"/>
<path d="M222.423 158.978H356.242L353.194 149.786C353.194 149.786 338.563 109.187 329.64 96.3664L325.2 93.5392L321.413 91.8592L304.464 91.1152L303.063 86.9392C303.063 86.9392 296.232 91.36 289.498 91.3072C282.763 91.2544 274.699 87.8032 274.699 87.8032L274.066 93.5632C274.066 93.5632 257.779 98.0656 254.866 98.7664C251.952 99.4672 237 106.797 237 106.797C237 106.797 236.76 107.963 236.362 110.267C235.963 112.571 229.944 131.574 229.944 131.574L221.16 158.978H222.423Z" fill="#2C78B2"/>
<path d="M297.859 52.312C297.984 53.1568 298.133 54 298.306 54.8416C298.507 55.8016 298.786 56.8528 299.563 57.4672C300.202 57.9472 301.095 58.1008 301.651 58.6912C301.932 59.0371 302.11 59.4551 302.165 59.8974C302.219 60.3397 302.148 60.7884 301.959 61.192C301.574 61.9956 301.037 62.7176 300.379 63.3184" stroke="#141518" stroke-width="0.48" stroke-linecap="round" stroke-linejoin="round"/>
<path d="M303.946 54.6976C303.946 55.6576 303.548 56.4688 303.058 56.4688C302.568 56.4688 302.17 55.6768 302.17 54.6976C302.17 53.7184 302.568 52.9216 303.058 52.9216C303.548 52.9216 303.946 53.7184 303.946 54.6976Z" fill="#141518"/>
<path d="M293.159 55.1345C293.159 56.1185 292.76 56.9105 292.271 56.9105C291.781 56.9105 291.383 56.1185 291.383 55.1345C291.383 54.1505 291.781 53.3633 292.271 53.3633C292.76 53.3633 293.159 54.1553 293.159 55.1345Z" fill="#141518"/>
<path d="M293.798 50.1856C293.798 50.1856 290.994 47.9584 287.615 51.1936" stroke="#141518" stroke-width="0.96" stroke-linecap="round" stroke-linejoin="round"/>
<path d="M300.916 49.8064C300.916 49.8064 304.046 48.0592 306.196 50.2624" stroke="#141518" stroke-width="0.96" stroke-linecap="round" stroke-linejoin="round"/>
<path d="M307.042 67.1871C307.042 67.1871 305.468 75.8271 300.917 76.1007C296.367 76.3743 297.332 72.1023 297.332 72.1023L293.799 71.4831C293.799 71.4831 292.882 75.6975 289.805 75.6975C286.728 75.6975 281.842 68.5935 280.829 60.0975L275.232 54.6975C275.232 54.6975 277.464 67.2639 278.981 71.4975L280.728 76.3935C280.728 76.3935 287.616 80.7519 294.6 82.2399C301.637 80.7663 302.328 77.7711 303.106 76.4511C303.884 75.1311 307.042 67.1871 307.042 67.1871Z" fill="#141518"/>
<path d="M272.164 34.3936C272.201 33.8726 272.356 33.3667 272.616 32.9138C272.876 32.4608 273.235 32.0724 273.666 31.7776C274.531 31.1926 275.515 30.8073 276.546 30.6496C280.113 29.968 283.78 30.6208 287.394 31.0192C291.009 31.4176 294.834 31.5328 298.084 29.9056C299.362 29.256 300.498 28.3607 301.429 27.2709C302.36 26.1812 303.066 24.9185 303.508 23.5552" stroke="white" stroke-width="0.48" stroke-linecap="round" stroke-linejoin="round"/>
<path d="M276.863 35.4641C277.39 35.0331 277.995 34.7072 278.644 34.5041C281.25 33.6161 284.126 34.0577 286.804 34.7825C289.482 35.5073 292.084 36.5057 294.83 36.7025C296.61 36.7939 298.395 36.6779 300.148 36.3569C303.143 35.8769 306.158 35.1665 308.788 33.6449C311.418 32.1233 313.626 29.6945 314.332 26.7473" stroke="white" stroke-width="0.48" stroke-linecap="round" stroke-linejoin="round"/>
<path d="M274.06 37.0144C273.618 36.9777 273.174 37.0794 272.791 37.3056C272.409 37.5317 272.106 37.8711 271.924 38.2768C271.57 39.0931 271.405 39.9796 271.444 40.8688C271.379 45.0605 271.781 49.2465 272.644 53.3488" stroke="white" stroke-width="0.48" stroke-linecap="round" stroke-linejoin="round"/>
<path d="M277.694 66.4913C277.694 66.4913 275.942 67.9985 274.722 67.9313C273.686 67.8641 269.922 62.7137 268.842 61.2113C268.655 60.944 268.511 60.6493 268.415 60.3377L267.402 56.9249C267.215 56.306 267.239 55.6425 267.47 55.0385L268.022 53.5985C268.16 53.2298 268.371 52.8928 268.642 52.6075C268.913 52.3221 269.239 52.0943 269.601 51.9377C270.143 51.7029 270.743 51.6364 271.323 51.7468C271.903 51.8572 272.437 52.1394 272.855 52.5569L275.601 55.2977" fill="white"/>
<path d="M277.694 66.4913C277.694 66.4913 275.942 67.9985 274.722 67.9313C273.686 67.8641 269.922 62.7137 268.842 61.2113C268.655 60.944 268.511 60.6493 268.415 60.3377L267.402 56.9249C267.215 56.306 267.239 55.6425 267.47 55.0385L268.022 53.5985C268.16 53.2298 268.371 52.8928 268.642 52.6075C268.913 52.3221 269.239 52.0943 269.601 51.9377C270.143 51.7029 270.743 51.6364 271.323 51.7468C271.903 51.8572 272.437 52.1394 272.855 52.5569L275.601 55.2977" stroke="#141518" stroke-width="0.48" stroke-linecap="round" stroke-linejoin="round"/>
<path d="M304.301 92.0944L303.057 86.9392C303.057 86.9392 295.406 91.6912 290.203 91.3024C285 90.9136 276.859 89.104 274.694 87.8032L274.061 93.5632C274.061 93.5632 280.781 98.9776 289.32 98.7568C297.859 98.536 304.301 92.0944 304.301 92.0944Z" stroke="#141518" stroke-width="0.48" stroke-linecap="round" stroke-linejoin="round"/>
<path d="M319.694 68.368C315.043 59.1088 307.262 53.5264 307.262 53.5264" stroke="#141518" stroke-width="0.48" stroke-linecap="round" stroke-linejoin="round"/>
<path d="M274.06 93.5393L256.42 98.2673C255.236 98.5832 254.078 98.9875 252.955 99.4769C248.683 101.339 237.753 106.135 236.985 106.797C236.854 106.92 236.749 107.069 236.676 107.234C236.603 107.399 236.565 107.577 236.563 107.757C236.491 109.922 236.141 112.07 235.521 114.146L221.121 158.968" stroke="#141518" stroke-width="0.48" stroke-linecap="round" stroke-linejoin="round"/>
<path d="M356.242 158.978C344.28 121.83 334.44 103.84 330.835 97.9311C329.939 96.461 328.649 95.2719 327.11 94.4991L323.174 92.5263C322.008 91.9458 320.732 91.6186 319.43 91.5663L304.301 90.9375" stroke="#141518" stroke-width="0.48" stroke-linecap="round" stroke-linejoin="round"/>
<path d="M271.276 108.088C270.334 109.758 269.49 111.481 268.746 113.248" stroke="#141518" stroke-width="0.48" stroke-linecap="round" stroke-linejoin="round"/>
<path d="M278.932 96.4287C276.531 99.6288 274.3 102.953 272.25 106.389" stroke="#141518" stroke-width="0.48" stroke-linecap="round" stroke-linejoin="round"/>
<path d="M281.073 97.3071C281.073 97.3071 278.582 104.31 277.713 110.267" stroke="#141518" stroke-width="0.48" stroke-linecap="round" stroke-linejoin="round"/>
<path d="M305.447 104.838C306.085 106.08 306.618 107.372 307.041 108.702" stroke="#141518" stroke-width="0.48" stroke-linecap="round" stroke-linejoin="round"/>
<path d="M299.256 95.7761C301.143 97.9434 302.831 100.276 304.301 102.746" stroke="#141518" stroke-width="0.48" stroke-linecap="round" stroke-linejoin="round"/>
<path d="M296.039 97.3071C296.039 97.3071 298.602 104.781 298.593 108.702" stroke="#141518" stroke-width="0.48" stroke-linecap="round" stroke-linejoin="round"/>
<path opacity="0.3" d="M348.946 158.982H221.16L229.959 131.574C229.959 131.574 235.978 112.571 236.371 110.272C236.765 107.973 237.01 106.797 237.01 106.797C237.01 106.797 251.971 99.4431 254.89 98.7375C257.808 98.0319 274.09 93.5439 274.09 93.5439L274.723 87.7839C274.723 87.7839 282.792 91.2351 289.527 91.2879C294.029 91.3263 298.584 89.3679 301.095 88.0479L301.517 91.9215C299.866 93.4431 295.791 96.9183 291.187 98.7135C291.576 98.6271 297.581 97.2255 301.747 93.9855V94.1775C301.747 94.1775 321.216 95.7519 324.091 98.0175C330.274 103.005 344.765 147.717 348.946 158.982Z" fill="black"/>
<path d="M367.232 165.03C365.187 163.317 363.349 162.208 362.111 159.717C359.845 155.152 359.087 149.848 358.544 144.837C357.056 131.008 354.752 140.632 354.752 140.632C354.859 143.786 354.698 146.942 354.272 150.069C353.48 156.237 351.795 162.069 345.781 164.949C345.628 165.015 345.497 165.124 345.404 165.263C345.311 165.402 345.261 165.564 345.258 165.731C345.258 167.171 350.264 168.309 356.442 168.309C362.619 168.309 367.626 167.157 367.626 165.731C367.617 165.592 367.577 165.457 367.509 165.336C367.441 165.215 367.346 165.11 367.232 165.03Z" fill="#2C78B2" stroke="#141518" stroke-width="0.48" stroke-linecap="round" stroke-linejoin="round"/>
<path d="M369.676 140.891C367.276 151.869 358.156 159.194 349.276 157.254C346.3 156.584 343.623 154.967 341.644 152.646C337.717 148.149 335.97 141.127 337.554 133.888C339.954 122.915 349.074 115.591 357.949 117.525C361.789 118.365 364.986 120.823 367.141 124.245C369.959 128.661 371.029 134.699 369.676 140.891Z" stroke="#141518" stroke-width="0.48" stroke-linecap="round" stroke-linejoin="round"/>
<path d="M373.286 141.486C370.474 154.331 359.726 162.899 349.286 160.634C345.789 159.851 342.639 157.959 340.306 155.238C335.688 149.982 333.634 141.765 335.506 133.293C338.318 120.453 349.061 111.88 359.506 114.146C364.046 115.13 367.781 117.986 370.315 121.994C373.603 127.178 374.88 134.243 373.286 141.486Z" fill="#2C78B2" stroke="#141518" stroke-width="0.48" stroke-linecap="round" stroke-linejoin="round"/>
<path opacity="0.5" d="M348.671 120.592C348.671 120.592 340.712 126.784 339.104 136C337.496 145.216 339.738 153.126 346.597 156.39C353.456 159.654 360.239 156.467 365.044 150.779C369.848 145.091 371.284 135.664 369.253 128.867C366.94 121.12 357.258 115.307 348.671 120.592Z" fill="white"/>
<path d="M369.676 140.891C367.276 151.869 358.156 159.194 349.276 157.254C346.3 156.584 343.623 154.967 341.644 152.646C338.84 148.216 337.756 142.182 339.109 135.986C341.509 125.013 350.629 117.688 359.509 119.622C362.485 120.294 365.163 121.913 367.141 124.235C369.959 128.661 371.029 134.699 369.676 140.891Z" stroke="#141518" stroke-width="0.48" stroke-linecap="round" stroke-linejoin="round"/>
<path d="M340.718 151.394C340.718 151.394 336.878 144.333 339.345 134.982C341.813 125.632 348.907 120.405 352.785 119.858C356.664 119.31 363.345 119.061 368.069 125.248C368.069 125.248 364.109 116.958 354.408 117.232C344.707 117.506 340.377 125.92 337.963 132.246C335.549 138.573 338.28 147.957 340.718 151.394Z" fill="#141518"/>
<path d="M346.598 135.184L353.457 128.325" stroke="#141518" stroke-width="0.48" stroke-linecap="round" stroke-linejoin="round"/>
<path d="M347.533 142.931L354.388 136.077" stroke="#141518" stroke-width="0.48" stroke-linecap="round" stroke-linejoin="round"/>
<path d="M347.533 137.738L360.373 124.893" stroke="#141518" stroke-width="0.48" stroke-linecap="round" stroke-linejoin="round"/>
<path d="M28.848 63.176C28.496 63.176 28.21 63.0953 27.99 62.934C27.7847 62.7727 27.66 62.56 27.616 62.296C27.572 62.0173 27.6233 61.7093 27.77 61.372L33.578 48.502C33.7687 48.0767 33.996 47.776 34.26 47.6C34.5387 47.4093 34.854 47.314 35.206 47.314C35.5433 47.314 35.844 47.4093 36.108 47.6C36.3867 47.776 36.6213 48.0767 36.812 48.502L42.642 61.372C42.8033 61.7093 42.862 62.0173 42.818 62.296C42.774 62.5747 42.6493 62.7947 42.444 62.956C42.2387 63.1027 41.9673 63.176 41.63 63.176C41.2193 63.176 40.8967 63.0807 40.662 62.89C40.442 62.6847 40.244 62.3767 40.068 61.966L38.638 58.644L39.826 59.414H30.542L31.73 58.644L30.322 61.966C30.1313 62.3913 29.9333 62.6993 29.728 62.89C29.5227 63.0807 29.2293 63.176 28.848 63.176ZM35.162 50.548L32.082 57.874L31.51 57.17H38.858L38.308 57.874L35.206 50.548H35.162ZM49.7097 67.18C48.9177 67.18 48.1477 67.1067 47.3997 66.96C46.6663 66.8133 45.999 66.586 45.3977 66.278C45.119 66.1313 44.9283 65.9553 44.8257 65.75C44.7377 65.5447 44.7083 65.332 44.7377 65.112C44.7817 64.9067 44.8697 64.7233 45.0017 64.562C45.1483 64.4007 45.3243 64.2907 45.5297 64.232C45.735 64.1733 45.9477 64.2027 46.1677 64.32C46.813 64.6427 47.4217 64.848 47.9937 64.936C48.5803 65.0387 49.079 65.09 49.4897 65.09C50.4723 65.09 51.2057 64.848 51.6897 64.364C52.1883 63.8947 52.4377 63.1907 52.4377 62.252V60.272H52.6357C52.4157 61.02 51.9537 61.6213 51.2497 62.076C50.5603 62.516 49.7757 62.736 48.8957 62.736C47.9277 62.736 47.0843 62.516 46.3657 62.076C45.647 61.6213 45.0897 60.9907 44.6937 60.184C44.2977 59.3773 44.0997 58.4387 44.0997 57.368C44.0997 56.5613 44.2097 55.8353 44.4297 55.19C44.6643 54.53 44.987 53.9653 45.3977 53.496C45.823 53.0267 46.329 52.6673 46.9157 52.418C47.517 52.154 48.177 52.022 48.8957 52.022C49.805 52.022 50.597 52.2493 51.2717 52.704C51.961 53.144 52.4083 53.7307 52.6137 54.464L52.3937 55.014V53.452C52.3937 52.9973 52.511 52.6527 52.7457 52.418C52.995 52.1833 53.3323 52.066 53.7577 52.066C54.1977 52.066 54.535 52.1833 54.7697 52.418C55.0043 52.6527 55.1217 52.9973 55.1217 53.452V61.922C55.1217 63.6673 54.6597 64.98 53.7357 65.86C52.8117 66.74 51.4697 67.18 49.7097 67.18ZM49.6437 60.646C50.2157 60.646 50.707 60.514 51.1177 60.25C51.5283 59.986 51.8437 59.612 52.0637 59.128C52.2983 58.6293 52.4157 58.0427 52.4157 57.368C52.4157 56.356 52.1663 55.564 51.6677 54.992C51.169 54.4053 50.4943 54.112 49.6437 54.112C49.0717 54.112 48.5803 54.244 48.1697 54.508C47.759 54.772 47.4363 55.146 47.2017 55.63C46.9817 56.114 46.8717 56.6933 46.8717 57.368C46.8717 58.38 47.121 59.1793 47.6197 59.766C48.1183 60.3527 48.793 60.646 49.6437 60.646ZM63.273 63.22C62.0557 63.22 61.007 62.9927 60.127 62.538C59.247 62.0833 58.565 61.438 58.081 60.602C57.6117 59.766 57.377 58.776 57.377 57.632C57.377 56.5173 57.6043 55.542 58.059 54.706C58.5283 53.87 59.1663 53.2173 59.973 52.748C60.7943 52.264 61.7257 52.022 62.767 52.022C63.5297 52.022 64.2117 52.1467 64.813 52.396C65.429 52.6453 65.9497 53.0047 66.375 53.474C66.815 53.9433 67.145 54.5153 67.365 55.19C67.5997 55.85 67.717 56.598 67.717 57.434C67.717 57.698 67.6217 57.9033 67.431 58.05C67.255 58.182 66.9983 58.248 66.661 58.248H59.599V56.664H65.781L65.429 56.994C65.429 56.3193 65.3263 55.7547 65.121 55.3C64.9303 54.8453 64.6443 54.5007 64.263 54.266C63.8963 54.0167 63.4343 53.892 62.877 53.892C62.261 53.892 61.733 54.0387 61.293 54.332C60.8677 54.6107 60.5377 55.014 60.303 55.542C60.083 56.0553 59.973 56.6713 59.973 57.39V57.544C59.973 58.7467 60.2517 59.6487 60.809 60.25C61.381 60.8367 62.217 61.13 63.317 61.13C63.6983 61.13 64.1237 61.086 64.593 60.998C65.077 60.8953 65.5317 60.7267 65.957 60.492C66.265 60.316 66.5363 60.2427 66.771 60.272C67.0057 60.2867 67.189 60.3673 67.321 60.514C67.4677 60.6607 67.5557 60.844 67.585 61.064C67.6143 61.2693 67.5703 61.482 67.453 61.702C67.3503 61.922 67.167 62.1127 66.903 62.274C66.3897 62.5967 65.7957 62.8387 65.121 63C64.461 63.1467 63.845 63.22 63.273 63.22ZM71.2588 63.176C70.8188 63.176 70.4815 63.0587 70.2468 62.824C70.0122 62.5747 69.8948 62.2227 69.8948 61.768V53.452C69.8948 52.9973 70.0122 52.6527 70.2468 52.418C70.4815 52.1833 70.8115 52.066 71.2368 52.066C71.6622 52.066 71.9922 52.1833 72.2268 52.418C72.4615 52.6527 72.5788 52.9973 72.5788 53.452V54.948L72.3368 54.398C72.6595 53.6207 73.1582 53.034 73.8328 52.638C74.5222 52.2273 75.2995 52.022 76.1648 52.022C77.0302 52.022 77.7415 52.1833 78.2988 52.506C78.8562 52.8287 79.2742 53.32 79.5528 53.98C79.8315 54.6253 79.9708 55.4467 79.9708 56.444V61.768C79.9708 62.2227 79.8535 62.5747 79.6188 62.824C79.3842 63.0587 79.0468 63.176 78.6068 63.176C78.1668 63.176 77.8222 63.0587 77.5728 62.824C77.3382 62.5747 77.2208 62.2227 77.2208 61.768V56.576C77.2208 55.74 77.0595 55.1313 76.7368 54.75C76.4288 54.3687 75.9448 54.178 75.2848 54.178C74.4782 54.178 73.8328 54.4347 73.3488 54.948C72.8795 55.4467 72.6448 56.114 72.6448 56.95V61.768C72.6448 62.7067 72.1828 63.176 71.2588 63.176ZM86.9 63.22C85.9613 63.22 85.1327 62.9927 84.414 62.538C83.71 62.0833 83.16 61.438 82.764 60.602C82.368 59.7513 82.17 58.754 82.17 57.61C82.17 56.4513 82.368 55.4613 82.764 54.64C83.16 53.804 83.71 53.1587 84.414 52.704C85.1327 52.2493 85.9613 52.022 86.9 52.022C87.7947 52.022 88.572 52.242 89.232 52.682C89.9067 53.122 90.3613 53.7013 90.596 54.42H90.354V48.7C90.354 48.2453 90.4713 47.9007 90.706 47.666C90.9407 47.4313 91.278 47.314 91.718 47.314C92.158 47.314 92.4953 47.4313 92.73 47.666C92.9793 47.9007 93.104 48.2453 93.104 48.7V61.768C93.104 62.2227 92.9867 62.5747 92.752 62.824C92.5173 63.0587 92.18 63.176 91.74 63.176C91.3 63.176 90.9627 63.0587 90.728 62.824C90.4933 62.5747 90.376 62.2227 90.376 61.768V60.052L90.618 60.712C90.398 61.4747 89.9507 62.0833 89.276 62.538C88.6013 62.9927 87.8093 63.22 86.9 63.22ZM87.67 61.13C88.2127 61.13 88.6893 60.998 89.1 60.734C89.5107 60.47 89.826 60.0813 90.046 59.568C90.2807 59.04 90.398 58.3873 90.398 57.61C90.398 56.4367 90.1487 55.564 89.65 54.992C89.1513 54.4053 88.4913 54.112 87.67 54.112C87.1273 54.112 86.6507 54.244 86.24 54.508C85.8293 54.7573 85.5067 55.146 85.272 55.674C85.052 56.1873 84.942 56.8327 84.942 57.61C84.942 58.7687 85.1913 59.6487 85.69 60.25C86.1887 60.8367 86.8487 61.13 87.67 61.13ZM101.257 63.22C100.04 63.22 98.9914 62.9927 98.1114 62.538C97.2314 62.0833 96.5494 61.438 96.0654 60.602C95.5961 59.766 95.3614 58.776 95.3614 57.632C95.3614 56.5173 95.5887 55.542 96.0434 54.706C96.5127 53.87 97.1507 53.2173 97.9574 52.748C98.7787 52.264 99.7101 52.022 100.751 52.022C101.514 52.022 102.196 52.1467 102.797 52.396C103.413 52.6453 103.934 53.0047 104.359 53.474C104.799 53.9433 105.129 54.5153 105.349 55.19C105.584 55.85 105.701 56.598 105.701 57.434C105.701 57.698 105.606 57.9033 105.415 58.05C105.239 58.182 104.983 58.248 104.645 58.248H97.5834V56.664H103.765L103.413 56.994C103.413 56.3193 103.311 55.7547 103.105 55.3C102.915 54.8453 102.629 54.5007 102.247 54.266C101.881 54.0167 101.419 53.892 100.861 53.892C100.245 53.892 99.7174 54.0387 99.2774 54.332C98.8521 54.6107 98.5221 55.014 98.2874 55.542C98.0674 56.0553 97.9574 56.6713 97.9574 57.39V57.544C97.9574 58.7467 98.2361 59.6487 98.7934 60.25C99.3654 60.8367 100.201 61.13 101.301 61.13C101.683 61.13 102.108 61.086 102.577 60.998C103.061 60.8953 103.516 60.7267 103.941 60.492C104.249 60.316 104.521 60.2427 104.755 60.272C104.99 60.2867 105.173 60.3673 105.305 60.514C105.452 60.6607 105.54 60.844 105.569 61.064C105.599 61.2693 105.555 61.482 105.437 61.702C105.335 61.922 105.151 62.1127 104.887 62.274C104.374 62.5967 103.78 62.8387 103.105 63C102.445 63.1467 101.829 63.22 101.257 63.22Z" fill="white"/>
<path d="M29.794 85.176C29.354 85.176 29.0167 85.0587 28.782 84.824C28.5473 84.5747 28.43 84.2227 28.43 83.768V75.452C28.43 74.9973 28.5473 74.6527 28.782 74.418C29.0167 74.1833 29.3467 74.066 29.772 74.066C30.1973 74.066 30.5273 74.1833 30.762 74.418C30.9967 74.6527 31.114 74.9973 31.114 75.452V76.948L30.872 76.398C31.1947 75.6207 31.6933 75.034 32.368 74.638C33.0573 74.2273 33.8347 74.022 34.7 74.022C35.5653 74.022 36.2767 74.1833 36.834 74.506C37.3913 74.8287 37.8093 75.32 38.088 75.98C38.3667 76.6253 38.506 77.4467 38.506 78.444V83.768C38.506 84.2227 38.3887 84.5747 38.154 84.824C37.9193 85.0587 37.582 85.176 37.142 85.176C36.702 85.176 36.3573 85.0587 36.108 84.824C35.8733 84.5747 35.756 84.2227 35.756 83.768V78.576C35.756 77.74 35.5947 77.1313 35.272 76.75C34.964 76.3687 34.48 76.178 33.82 76.178C33.0133 76.178 32.368 76.4347 31.884 76.948C31.4147 77.4467 31.18 78.114 31.18 78.95V83.768C31.18 84.7067 30.718 85.176 29.794 85.176ZM46.2051 85.22C45.0905 85.22 44.1225 84.9927 43.3011 84.538C42.4798 84.0833 41.8418 83.438 41.3871 82.602C40.9325 81.7513 40.7051 80.754 40.7051 79.61C40.7051 78.7447 40.8298 77.9747 41.0791 77.3C41.3431 76.6107 41.7171 76.024 42.2011 75.54C42.6851 75.0413 43.2645 74.6673 43.9391 74.418C44.6138 74.154 45.3691 74.022 46.2051 74.022C47.3198 74.022 48.2878 74.2493 49.1091 74.704C49.9305 75.1587 50.5685 75.804 51.0231 76.64C51.4778 77.476 51.7051 78.466 51.7051 79.61C51.7051 80.4753 51.5731 81.2527 51.3091 81.942C51.0598 82.6313 50.6931 83.2253 50.2091 83.724C49.7251 84.208 49.1458 84.582 48.4711 84.846C47.7965 85.0953 47.0411 85.22 46.2051 85.22ZM46.2051 83.13C46.7478 83.13 47.2245 82.998 47.6351 82.734C48.0458 82.47 48.3611 82.0813 48.5811 81.568C48.8158 81.04 48.9331 80.3873 48.9331 79.61C48.9331 78.4367 48.6838 77.564 48.1851 76.992C47.6865 76.4053 47.0265 76.112 46.2051 76.112C45.6625 76.112 45.1858 76.244 44.7751 76.508C44.3645 76.7573 44.0418 77.146 43.8071 77.674C43.5871 78.1873 43.4771 78.8327 43.4771 79.61C43.4771 80.7687 43.7265 81.6487 44.2251 82.25C44.7238 82.8367 45.3838 83.13 46.2051 83.13ZM57.9129 85.22C57.2823 85.22 56.6149 85.154 55.9109 85.022C55.2069 84.89 54.5763 84.6627 54.0189 84.34C53.7843 84.1933 53.6156 84.0247 53.5129 83.834C53.4249 83.6287 53.3883 83.4307 53.4029 83.24C53.4323 83.0347 53.5056 82.8587 53.6229 82.712C53.7549 82.5653 53.9163 82.47 54.1069 82.426C54.3123 82.382 54.5323 82.4187 54.7669 82.536C55.3536 82.8147 55.9036 83.0127 56.4169 83.13C56.9303 83.2327 57.4363 83.284 57.9349 83.284C58.6389 83.284 59.1596 83.1667 59.4969 82.932C59.8489 82.6827 60.0249 82.36 60.0249 81.964C60.0249 81.6267 59.9076 81.37 59.6729 81.194C59.4529 81.0033 59.1156 80.864 58.6609 80.776L56.4609 80.358C55.5516 80.182 54.8549 79.852 54.3709 79.368C53.9016 78.8693 53.6669 78.2313 53.6669 77.454C53.6669 76.75 53.8576 76.1413 54.2389 75.628C54.6349 75.1147 55.1776 74.7187 55.8669 74.44C56.5563 74.1613 57.3483 74.022 58.2429 74.022C58.8883 74.022 59.4896 74.0953 60.0469 74.242C60.6189 74.374 61.1689 74.5867 61.6969 74.88C61.9169 74.9973 62.0636 75.1513 62.1369 75.342C62.2249 75.5327 62.2469 75.7307 62.2029 75.936C62.1589 76.1267 62.0709 76.3027 61.9389 76.464C61.8069 76.6107 61.6383 76.706 61.4329 76.75C61.2423 76.7793 61.0223 76.7353 60.7729 76.618C60.3183 76.3833 59.8783 76.2147 59.4529 76.112C59.0423 76.0093 58.6463 75.958 58.2649 75.958C57.5463 75.958 57.0109 76.0827 56.6589 76.332C56.3216 76.5813 56.1529 76.9113 56.1529 77.322C56.1529 77.63 56.2556 77.8867 56.4609 78.092C56.6663 78.2973 56.9816 78.4367 57.4069 78.51L59.6069 78.928C60.5603 79.104 61.2789 79.4267 61.7629 79.896C62.2616 80.3653 62.5109 80.996 62.5109 81.788C62.5109 82.8587 62.0929 83.702 61.2569 84.318C60.4209 84.9193 59.3063 85.22 57.9129 85.22ZM72.0978 85.176C71.6578 85.176 71.3204 85.0587 71.0858 84.824C70.8511 84.5747 70.7338 84.2227 70.7338 83.768V75.452C70.7338 74.9973 70.8511 74.6527 71.0858 74.418C71.3204 74.1833 71.6504 74.066 72.0758 74.066C72.5011 74.066 72.8311 74.1833 73.0658 74.418C73.3004 74.6527 73.4178 74.9973 73.4178 75.452V77.058L73.1758 76.398C73.4691 75.6647 73.9238 75.0853 74.5398 74.66C75.1558 74.2347 75.8891 74.022 76.7398 74.022C77.6051 74.022 78.3164 74.2273 78.8738 74.638C79.4311 75.0487 79.8198 75.6793 80.0398 76.53H79.7318C80.0251 75.7527 80.5091 75.144 81.1838 74.704C81.8584 74.2493 82.6358 74.022 83.5158 74.022C84.3371 74.022 85.0118 74.1833 85.5398 74.506C86.0824 74.8287 86.4858 75.32 86.7498 75.98C87.0138 76.6253 87.1458 77.4467 87.1458 78.444V83.768C87.1458 84.2227 87.0211 84.5747 86.7718 84.824C86.5371 85.0587 86.1998 85.176 85.7598 85.176C85.3198 85.176 84.9824 85.0587 84.7478 84.824C84.5131 84.5747 84.3958 84.2227 84.3958 83.768V78.554C84.3958 77.7327 84.2564 77.1313 83.9778 76.75C83.7138 76.3687 83.2591 76.178 82.6138 76.178C81.8951 76.178 81.3304 76.4347 80.9198 76.948C80.5091 77.4467 80.3038 78.1433 80.3038 79.038V83.768C80.3038 84.2227 80.1864 84.5747 79.9518 84.824C79.7171 85.0587 79.3798 85.176 78.9398 85.176C78.4998 85.176 78.1551 85.0587 77.9058 84.824C77.6711 84.5747 77.5538 84.2227 77.5538 83.768V78.554C77.5538 77.7327 77.4144 77.1313 77.1358 76.75C76.8718 76.3687 76.4244 76.178 75.7938 76.178C75.0751 76.178 74.5104 76.4347 74.0998 76.948C73.6891 77.4467 73.4838 78.1433 73.4838 79.038V83.768C73.4838 84.7067 73.0218 85.176 72.0978 85.176ZM95.2847 85.22C94.0674 85.22 93.0187 84.9927 92.1387 84.538C91.2587 84.0833 90.5767 83.438 90.0927 82.602C89.6234 81.766 89.3887 80.776 89.3887 79.632C89.3887 78.5173 89.6161 77.542 90.0707 76.706C90.5401 75.87 91.1781 75.2173 91.9847 74.748C92.8061 74.264 93.7374 74.022 94.7787 74.022C95.5414 74.022 96.2234 74.1467 96.8247 74.396C97.4407 74.6453 97.9614 75.0047 98.3867 75.474C98.8267 75.9433 99.1567 76.5153 99.3767 77.19C99.6114 77.85 99.7287 78.598 99.7287 79.434C99.7287 79.698 99.6334 79.9033 99.4427 80.05C99.2667 80.182 99.0101 80.248 98.6727 80.248H91.6107V78.664H97.7927L97.4407 78.994C97.4407 78.3193 97.3381 77.7547 97.1327 77.3C96.9421 76.8453 96.6561 76.5007 96.2747 76.266C95.9081 76.0167 95.4461 75.892 94.8887 75.892C94.2727 75.892 93.7447 76.0387 93.3047 76.332C92.8794 76.6107 92.5494 77.014 92.3147 77.542C92.0947 78.0553 91.9847 78.6713 91.9847 79.39V79.544C91.9847 80.7467 92.2634 81.6487 92.8207 82.25C93.3927 82.8367 94.2287 83.13 95.3287 83.13C95.7101 83.13 96.1354 83.086 96.6047 82.998C97.0887 82.8953 97.5434 82.7267 97.9687 82.492C98.2767 82.316 98.5481 82.2427 98.7827 82.272C99.0174 82.2867 99.2007 82.3673 99.3327 82.514C99.4794 82.6607 99.5674 82.844 99.5967 83.064C99.6261 83.2693 99.5821 83.482 99.4647 83.702C99.3621 83.922 99.1787 84.1127 98.9147 84.274C98.4014 84.5967 97.8074 84.8387 97.1327 85C96.4727 85.1467 95.8567 85.22 95.2847 85.22ZM105.581 85.22C104.363 85.22 103.447 84.8753 102.831 84.186C102.215 83.482 101.907 82.4553 101.907 81.106V70.7C101.907 70.2453 102.024 69.9007 102.259 69.666C102.493 69.4313 102.831 69.314 103.271 69.314C103.711 69.314 104.048 69.4313 104.283 69.666C104.532 69.9007 104.657 70.2453 104.657 70.7V80.974C104.657 81.6487 104.796 82.1473 105.075 82.47C105.368 82.7927 105.779 82.954 106.307 82.954C106.424 82.954 106.534 82.954 106.637 82.954C106.739 82.9393 106.842 82.9247 106.945 82.91C107.15 82.8807 107.289 82.9393 107.363 83.086C107.436 83.218 107.473 83.4967 107.473 83.922C107.473 84.2887 107.399 84.5747 107.253 84.78C107.106 84.9853 106.864 85.11 106.527 85.154C106.38 85.1687 106.226 85.1833 106.065 85.198C105.903 85.2127 105.742 85.22 105.581 85.22ZM110.296 85.176C109.856 85.176 109.519 85.0587 109.284 84.824C109.049 84.5747 108.932 84.2227 108.932 83.768V70.7C108.932 70.2453 109.049 69.9007 109.284 69.666C109.519 69.4313 109.856 69.314 110.296 69.314C110.736 69.314 111.073 69.4313 111.308 69.666C111.557 69.9007 111.682 70.2453 111.682 70.7V76.398H111.374C111.697 75.6207 112.195 75.034 112.87 74.638C113.559 74.2273 114.337 74.022 115.202 74.022C116.067 74.022 116.779 74.1833 117.336 74.506C117.893 74.8287 118.311 75.32 118.59 75.98C118.869 76.6253 119.008 77.4467 119.008 78.444V83.768C119.008 84.2227 118.891 84.5747 118.656 84.824C118.421 85.0587 118.084 85.176 117.644 85.176C117.204 85.176 116.859 85.0587 116.61 84.824C116.375 84.5747 116.258 84.2227 116.258 83.768V78.576C116.258 77.74 116.097 77.1313 115.774 76.75C115.466 76.3687 114.982 76.178 114.322 76.178C113.515 76.178 112.87 76.4347 112.386 76.948C111.917 77.4467 111.682 78.114 111.682 78.95V83.768C111.682 84.7067 111.22 85.176 110.296 85.176ZM126.707 85.22C125.592 85.22 124.624 84.9927 123.803 84.538C122.982 84.0833 122.344 83.438 121.889 82.602C121.434 81.7513 121.207 80.754 121.207 79.61C121.207 78.7447 121.332 77.9747 121.581 77.3C121.845 76.6107 122.219 76.024 122.703 75.54C123.187 75.0413 123.766 74.6673 124.441 74.418C125.116 74.154 125.871 74.022 126.707 74.022C127.822 74.022 128.79 74.2493 129.611 74.704C130.432 75.1587 131.07 75.804 131.525 76.64C131.98 77.476 132.207 78.466 132.207 79.61C132.207 80.4753 132.075 81.2527 131.811 81.942C131.562 82.6313 131.195 83.2253 130.711 83.724C130.227 84.208 129.648 84.582 128.973 84.846C128.298 85.0953 127.543 85.22 126.707 85.22ZM126.707 83.13C127.25 83.13 127.726 82.998 128.137 82.734C128.548 82.47 128.863 82.0813 129.083 81.568C129.318 81.04 129.435 80.3873 129.435 79.61C129.435 78.4367 129.186 77.564 128.687 76.992C128.188 76.4053 127.528 76.112 126.707 76.112C126.164 76.112 125.688 76.244 125.277 76.508C124.866 76.7573 124.544 77.146 124.309 77.674C124.089 78.1873 123.979 78.8327 123.979 79.61C123.979 80.7687 124.228 81.6487 124.727 82.25C125.226 82.8367 125.886 83.13 126.707 83.13ZM135.885 85.176C135.43 85.176 135.078 85.0587 134.829 84.824C134.594 84.5747 134.477 84.2227 134.477 83.768V75.452C134.477 74.9973 134.594 74.6527 134.829 74.418C135.064 74.1833 135.394 74.066 135.819 74.066C136.244 74.066 136.574 74.1833 136.809 74.418C137.044 74.6527 137.161 74.9973 137.161 75.452V76.838H136.941C137.146 75.958 137.55 75.2907 138.151 74.836C138.752 74.3813 139.552 74.11 140.549 74.022C140.857 73.9927 141.099 74.0733 141.275 74.264C141.466 74.44 141.576 74.7187 141.605 75.1C141.634 75.4667 141.546 75.7673 141.341 76.002C141.15 76.222 140.857 76.354 140.461 76.398L139.977 76.442C139.082 76.53 138.408 76.8087 137.953 77.278C137.498 77.7327 137.271 78.378 137.271 79.214V83.768C137.271 84.2227 137.154 84.5747 136.919 84.824C136.684 85.0587 136.34 85.176 135.885 85.176ZM148.222 85.22C147.005 85.22 145.956 84.9927 145.076 84.538C144.196 84.0833 143.514 83.438 143.03 82.602C142.561 81.766 142.326 80.776 142.326 79.632C142.326 78.5173 142.554 77.542 143.008 76.706C143.478 75.87 144.116 75.2173 144.922 74.748C145.744 74.264 146.675 74.022 147.716 74.022C148.479 74.022 149.161 74.1467 149.762 74.396C150.378 74.6453 150.899 75.0047 151.324 75.474C151.764 75.9433 152.094 76.5153 152.314 77.19C152.549 77.85 152.666 78.598 152.666 79.434C152.666 79.698 152.571 79.9033 152.38 80.05C152.204 80.182 151.948 80.248 151.61 80.248H144.548V78.664H150.73L150.378 78.994C150.378 78.3193 150.276 77.7547 150.07 77.3C149.88 76.8453 149.594 76.5007 149.212 76.266C148.846 76.0167 148.384 75.892 147.826 75.892C147.21 75.892 146.682 76.0387 146.242 76.332C145.817 76.6107 145.487 77.014 145.252 77.542C145.032 78.0553 144.922 78.6713 144.922 79.39V79.544C144.922 80.7467 145.201 81.6487 145.758 82.25C146.33 82.8367 147.166 83.13 148.266 83.13C148.648 83.13 149.073 83.086 149.542 82.998C150.026 82.8953 150.481 82.7267 150.906 82.492C151.214 82.316 151.486 82.2427 151.72 82.272C151.955 82.2867 152.138 82.3673 152.27 82.514C152.417 82.6607 152.505 82.844 152.534 83.064C152.564 83.2693 152.52 83.482 152.402 83.702C152.3 83.922 152.116 84.1127 151.852 84.274C151.339 84.5967 150.745 84.8387 150.07 85C149.41 85.1467 148.794 85.22 148.222 85.22ZM158.782 85.22C158.151 85.22 157.484 85.154 156.78 85.022C156.076 84.89 155.445 84.6627 154.888 84.34C154.653 84.1933 154.485 84.0247 154.382 83.834C154.294 83.6287 154.257 83.4307 154.272 83.24C154.301 83.0347 154.375 82.8587 154.492 82.712C154.624 82.5653 154.785 82.47 154.976 82.426C155.181 82.382 155.401 82.4187 155.636 82.536C156.223 82.8147 156.773 83.0127 157.286 83.13C157.799 83.2327 158.305 83.284 158.804 83.284C159.508 83.284 160.029 83.1667 160.366 82.932C160.718 82.6827 160.894 82.36 160.894 81.964C160.894 81.6267 160.777 81.37 160.542 81.194C160.322 81.0033 159.985 80.864 159.53 80.776L157.33 80.358C156.421 80.182 155.724 79.852 155.24 79.368C154.771 78.8693 154.536 78.2313 154.536 77.454C154.536 76.75 154.727 76.1413 155.108 75.628C155.504 75.1147 156.047 74.7187 156.736 74.44C157.425 74.1613 158.217 74.022 159.112 74.022C159.757 74.022 160.359 74.0953 160.916 74.242C161.488 74.374 162.038 74.5867 162.566 74.88C162.786 74.9973 162.933 75.1513 163.006 75.342C163.094 75.5327 163.116 75.7307 163.072 75.936C163.028 76.1267 162.94 76.3027 162.808 76.464C162.676 76.6107 162.507 76.706 162.302 76.75C162.111 76.7793 161.891 76.7353 161.642 76.618C161.187 76.3833 160.747 76.2147 160.322 76.112C159.911 76.0093 159.515 75.958 159.134 75.958C158.415 75.958 157.88 76.0827 157.528 76.332C157.191 76.5813 157.022 76.9113 157.022 77.322C157.022 77.63 157.125 77.8867 157.33 78.092C157.535 78.2973 157.851 78.4367 158.276 78.51L160.476 78.928C161.429 79.104 162.148 79.4267 162.632 79.896C163.131 80.3653 163.38 80.996 163.38 81.788C163.38 82.8587 162.962 83.702 162.126 84.318C161.29 84.9193 160.175 85.22 158.782 85.22Z" fill="white"/>
<path d="M30.892 104.112C30.2293 104.112 29.66 103.967 29.184 103.678C28.708 103.379 28.3393 102.964 28.078 102.432C27.826 101.891 27.7 101.265 27.7 100.556C27.7 100.015 27.77 99.534 27.91 99.114C28.0593 98.6847 28.2693 98.3207 28.54 98.022C28.82 97.7233 29.156 97.4947 29.548 97.336C29.9493 97.168 30.3973 97.084 30.892 97.084C31.2373 97.084 31.592 97.1447 31.956 97.266C32.32 97.378 32.6513 97.5693 32.95 97.84C33.0153 97.896 33.0573 97.9613 33.076 98.036C33.0947 98.1107 33.09 98.1853 33.062 98.26C33.034 98.3253 32.992 98.3813 32.936 98.428C32.88 98.4653 32.81 98.4887 32.726 98.498C32.6513 98.498 32.572 98.4607 32.488 98.386C32.2267 98.1713 31.9607 98.0267 31.69 97.952C31.4287 97.868 31.172 97.826 30.92 97.826C30.5373 97.826 30.2013 97.8867 29.912 98.008C29.6227 98.1293 29.3753 98.3067 29.17 98.54C28.974 98.7733 28.8247 99.0627 28.722 99.408C28.6193 99.744 28.568 100.131 28.568 100.57C28.568 101.447 28.7687 102.138 29.17 102.642C29.5807 103.137 30.164 103.384 30.92 103.384C31.172 103.384 31.4287 103.347 31.69 103.272C31.9607 103.188 32.2267 103.039 32.488 102.824C32.572 102.749 32.6513 102.717 32.726 102.726C32.81 102.726 32.88 102.749 32.936 102.796C32.992 102.833 33.0293 102.889 33.048 102.964C33.076 103.029 33.0807 103.099 33.062 103.174C33.0433 103.249 33.0013 103.314 32.936 103.37C32.6467 103.641 32.32 103.832 31.956 103.944C31.592 104.056 31.2373 104.112 30.892 104.112ZM37.1111 104.112C36.4764 104.112 35.9257 103.967 35.4591 103.678C34.9924 103.389 34.6284 102.983 34.3671 102.46C34.1151 101.937 33.9891 101.317 33.9891 100.598C33.9891 100.066 34.0591 99.5853 34.1991 99.156C34.3484 98.7267 34.5584 98.358 34.8291 98.05C35.1091 97.7327 35.4404 97.4947 35.8231 97.336C36.2151 97.168 36.6444 97.084 37.1111 97.084C37.7551 97.084 38.3104 97.2287 38.7771 97.518C39.2437 97.8073 39.6031 98.218 39.8551 98.75C40.1164 99.2727 40.2471 99.8887 40.2471 100.598C40.2471 101.139 40.1724 101.625 40.0231 102.054C39.8831 102.483 39.6731 102.852 39.3931 103.16C39.1224 103.468 38.7957 103.706 38.4131 103.874C38.0304 104.033 37.5964 104.112 37.1111 104.112ZM37.1111 103.398C37.5777 103.398 37.9791 103.291 38.3151 103.076C38.6604 102.852 38.9217 102.53 39.0991 102.11C39.2857 101.69 39.3791 101.186 39.3791 100.598C39.3791 99.7113 39.1737 99.0253 38.7631 98.54C38.3617 98.0547 37.8111 97.812 37.1111 97.812C36.6537 97.812 36.2524 97.924 35.9071 98.148C35.5711 98.3627 35.3097 98.68 35.1231 99.1C34.9457 99.5107 34.8571 100.01 34.8571 100.598C34.8571 101.494 35.0624 102.185 35.4731 102.67C35.8837 103.155 36.4297 103.398 37.1111 103.398ZM42.5273 104.084C42.3873 104.084 42.28 104.047 42.2053 103.972C42.1306 103.897 42.0933 103.79 42.0933 103.65V97.56C42.0933 97.4107 42.1306 97.2987 42.2053 97.224C42.28 97.1493 42.3873 97.112 42.5273 97.112C42.658 97.112 42.756 97.1493 42.8213 97.224C42.896 97.2987 42.9333 97.4107 42.9333 97.56V98.89L42.7793 98.792C42.9473 98.2413 43.232 97.8213 43.6333 97.532C44.0346 97.2333 44.5153 97.084 45.0753 97.084C45.6726 97.084 46.1486 97.2287 46.5033 97.518C46.8673 97.8073 47.1053 98.2413 47.2173 98.82H47.0073C47.166 98.2973 47.46 97.8773 47.8893 97.56C48.328 97.2427 48.8413 97.084 49.4293 97.084C49.9333 97.084 50.3486 97.182 50.6753 97.378C51.0113 97.574 51.2633 97.868 51.4313 98.26C51.5993 98.6427 51.6833 99.128 51.6833 99.716V103.65C51.6833 103.79 51.646 103.897 51.5713 103.972C51.4966 104.047 51.3893 104.084 51.2493 104.084C51.1186 104.084 51.016 104.047 50.9413 103.972C50.8666 103.897 50.8293 103.79 50.8293 103.65V99.786C50.8293 99.1047 50.708 98.61 50.4653 98.302C50.232 97.9847 49.8353 97.826 49.2753 97.826C48.678 97.826 48.202 98.036 47.8473 98.456C47.4926 98.8667 47.3153 99.4267 47.3153 100.136V103.65C47.3153 103.79 47.278 103.897 47.2033 103.972C47.1286 104.047 47.026 104.084 46.8953 104.084C46.7553 104.084 46.648 104.047 46.5733 103.972C46.4986 103.897 46.4613 103.79 46.4613 103.65V99.786C46.4613 99.1047 46.34 98.61 46.0973 98.302C45.864 97.9847 45.472 97.826 44.9213 97.826C44.3146 97.826 43.834 98.036 43.4793 98.456C43.1246 98.8667 42.9473 99.4267 42.9473 100.136V103.65C42.9473 103.939 42.8073 104.084 42.5273 104.084ZM60.4842 104.084C60.3442 104.084 60.2368 104.047 60.1622 103.972C60.0875 103.888 60.0502 103.776 60.0502 103.636V94.9H56.7042C56.5735 94.9 56.4708 94.8627 56.3962 94.788C56.3215 94.7133 56.2842 94.62 56.2842 94.508C56.2842 94.3867 56.3215 94.2933 56.3962 94.228C56.4708 94.1627 56.5735 94.13 56.7042 94.13H64.2782C64.4088 94.13 64.5068 94.1627 64.5722 94.228C64.6468 94.2933 64.6842 94.3867 64.6842 94.508C64.6842 94.6293 64.6468 94.7273 64.5722 94.802C64.5068 94.8673 64.4088 94.9 64.2782 94.9H60.9182V103.636C60.9182 103.776 60.8808 103.888 60.8062 103.972C60.7408 104.047 60.6335 104.084 60.4842 104.084ZM66.3607 104C66.23 104 66.1227 103.963 66.0387 103.888C65.964 103.804 65.9267 103.692 65.9267 103.552V94.508C65.9267 94.3587 65.964 94.2467 66.0387 94.172C66.1133 94.0973 66.216 94.06 66.3467 94.06C66.4867 94.06 66.594 94.0973 66.6687 94.172C66.7433 94.2467 66.7807 94.3587 66.7807 94.508V103.23H71.5967C71.7367 103.23 71.8393 103.263 71.9047 103.328C71.9793 103.393 72.0167 103.487 72.0167 103.608C72.0167 103.739 71.9793 103.837 71.9047 103.902C71.8393 103.967 71.7367 104 71.5967 104H66.3607ZM76.2391 104.112C75.7911 104.112 75.3571 104.075 74.9371 104C74.5171 103.925 74.1251 103.813 73.7611 103.664C73.4064 103.505 73.0844 103.314 72.7951 103.09C72.7018 103.025 72.6364 102.95 72.5991 102.866C72.5711 102.773 72.5664 102.689 72.5851 102.614C72.6131 102.53 72.6551 102.46 72.7111 102.404C72.7764 102.348 72.8511 102.32 72.9351 102.32C73.0191 102.311 73.1078 102.339 73.2011 102.404C73.6304 102.721 74.0831 102.955 74.5591 103.104C75.0444 103.253 75.6044 103.328 76.2391 103.328C77.1258 103.328 77.7884 103.155 78.2271 102.81C78.6751 102.465 78.8991 102.012 78.8991 101.452C78.8991 100.985 78.7358 100.621 78.4091 100.36C78.0918 100.099 77.5644 99.8933 76.8271 99.744L75.4131 99.45C74.5264 99.2727 73.8684 98.974 73.4391 98.554C73.0098 98.134 72.7951 97.574 72.7951 96.874C72.7951 96.4447 72.8791 96.0573 73.0471 95.712C73.2151 95.3573 73.4531 95.054 73.7611 94.802C74.0691 94.55 74.4331 94.3587 74.8531 94.228C75.2824 94.088 75.7538 94.018 76.2671 94.018C76.8738 94.018 77.4291 94.102 77.9331 94.27C78.4464 94.438 78.9131 94.704 79.3331 95.068C79.4171 95.1333 79.4731 95.2127 79.5011 95.306C79.5291 95.39 79.5291 95.474 79.5011 95.558C79.4731 95.6327 79.4311 95.6933 79.3751 95.74C79.3191 95.7867 79.2491 95.8147 79.1651 95.824C79.0811 95.824 78.9924 95.7867 78.8991 95.712C78.5071 95.3947 78.0964 95.166 77.6671 95.026C77.2471 94.8767 76.7804 94.802 76.2671 94.802C75.7444 94.802 75.2871 94.886 74.8951 95.054C74.5124 95.222 74.2138 95.46 73.9991 95.768C73.7844 96.076 73.6771 96.44 73.6771 96.86C73.6771 97.3453 73.8264 97.7327 74.1251 98.022C74.4238 98.3113 74.9044 98.5213 75.5671 98.652L76.9951 98.946C77.9378 99.142 78.6378 99.436 79.0951 99.828C79.5524 100.211 79.7811 100.738 79.7811 101.41C79.7811 101.811 79.6971 102.18 79.5291 102.516C79.3704 102.843 79.1371 103.127 78.8291 103.37C78.5211 103.613 78.1478 103.799 77.7091 103.93C77.2798 104.051 76.7898 104.112 76.2391 104.112ZM85.6663 104C85.517 104 85.4003 103.958 85.3163 103.874C85.2323 103.79 85.1903 103.669 85.1903 103.51V94.62C85.1903 94.4613 85.2323 94.34 85.3163 94.256C85.4003 94.172 85.517 94.13 85.6663 94.13H88.9563C89.6377 94.13 90.2117 94.2327 90.6783 94.438C91.145 94.634 91.5043 94.9233 91.7563 95.306C92.0083 95.6887 92.1343 96.16 92.1343 96.72C92.1343 97.336 91.9477 97.8493 91.5743 98.26C91.2103 98.6707 90.7157 98.9413 90.0903 99.072V98.876C90.7903 98.9507 91.341 99.2027 91.7423 99.632C92.153 100.052 92.3583 100.612 92.3583 101.312C92.3583 102.189 92.0783 102.857 91.5183 103.314C90.9583 103.771 90.165 104 89.1383 104H85.6663ZM86.0303 103.272H89.0683C89.8803 103.272 90.487 103.113 90.8883 102.796C91.2897 102.469 91.4903 101.979 91.4903 101.326C91.4903 100.654 91.2897 100.159 90.8883 99.842C90.487 99.5247 89.8803 99.366 89.0683 99.366H86.0303V103.272ZM86.0303 98.638H88.8583C89.6423 98.638 90.2397 98.4793 90.6503 98.162C91.061 97.8353 91.2663 97.364 91.2663 96.748C91.2663 96.132 91.061 95.6653 90.6503 95.348C90.2397 95.0213 89.6423 94.858 88.8583 94.858H86.0303V98.638ZM96.5149 104.112C96.0576 104.112 95.6469 104.023 95.2829 103.846C94.9283 103.669 94.6436 103.426 94.4289 103.118C94.2236 102.81 94.1209 102.465 94.1209 102.082C94.1209 101.578 94.2469 101.181 94.4989 100.892C94.7509 100.603 95.1756 100.402 95.7729 100.29C96.3703 100.169 97.1916 100.108 98.2369 100.108H98.8389V100.738H98.2509C97.4109 100.738 96.7529 100.775 96.2769 100.85C95.8103 100.915 95.4836 101.041 95.2969 101.228C95.1103 101.415 95.0169 101.676 95.0169 102.012C95.0169 102.432 95.1616 102.773 95.4509 103.034C95.7403 103.295 96.1323 103.426 96.6269 103.426C97.0283 103.426 97.3783 103.333 97.6769 103.146C97.9849 102.95 98.2276 102.684 98.4049 102.348C98.5823 102.012 98.6709 101.629 98.6709 101.2V99.604C98.6709 98.9787 98.5449 98.526 98.2929 98.246C98.0409 97.9567 97.6396 97.812 97.0889 97.812C96.7343 97.812 96.3889 97.8587 96.0529 97.952C95.7263 98.0453 95.3763 98.1947 95.0029 98.4C94.9003 98.456 94.8069 98.4747 94.7229 98.456C94.6483 98.4373 94.5876 98.4 94.5409 98.344C94.5036 98.288 94.4756 98.2227 94.4569 98.148C94.4476 98.064 94.4616 97.9847 94.4989 97.91C94.5363 97.8353 94.6016 97.7747 94.6949 97.728C95.0869 97.5133 95.4836 97.3547 95.8849 97.252C96.2956 97.14 96.6923 97.084 97.0749 97.084C97.6256 97.084 98.0783 97.1773 98.4329 97.364C98.7969 97.5507 99.0629 97.8307 99.2309 98.204C99.4083 98.5773 99.4969 99.058 99.4969 99.646V103.65C99.4969 103.79 99.4643 103.897 99.3989 103.972C99.3336 104.047 99.2356 104.084 99.1049 104.084C98.9743 104.084 98.8716 104.047 98.7969 103.972C98.7223 103.897 98.6849 103.79 98.6849 103.65V102.362H98.8249C98.7409 102.726 98.5916 103.039 98.3769 103.3C98.1623 103.561 97.8963 103.762 97.5789 103.902C97.2616 104.042 96.9069 104.112 96.5149 104.112ZM102.163 104.084C102.023 104.084 101.916 104.047 101.841 103.972C101.767 103.897 101.729 103.79 101.729 103.65V97.56C101.729 97.4107 101.767 97.2987 101.841 97.224C101.916 97.1493 102.023 97.112 102.163 97.112C102.294 97.112 102.392 97.1493 102.457 97.224C102.532 97.2987 102.569 97.4107 102.569 97.56V98.806H102.429C102.597 98.2553 102.896 97.8307 103.325 97.532C103.764 97.2333 104.287 97.0793 104.893 97.07C105.005 97.0607 105.099 97.084 105.173 97.14C105.248 97.196 105.285 97.2847 105.285 97.406C105.295 97.5367 105.267 97.6393 105.201 97.714C105.136 97.7793 105.029 97.8213 104.879 97.84L104.683 97.854C104.021 97.9193 103.507 98.1387 103.143 98.512C102.779 98.8853 102.597 99.3893 102.597 100.024V103.65C102.597 103.79 102.56 103.897 102.485 103.972C102.42 104.047 102.313 104.084 102.163 104.084ZM109.749 104.112C109.114 104.112 108.573 103.949 108.125 103.622C107.677 103.295 107.373 102.857 107.215 102.306L107.369 102.222V103.65C107.369 103.79 107.331 103.897 107.257 103.972C107.182 104.047 107.079 104.084 106.949 104.084C106.809 104.084 106.701 104.047 106.627 103.972C106.552 103.897 106.515 103.79 106.515 103.65V94.48C106.515 94.3307 106.552 94.2233 106.627 94.158C106.701 94.0833 106.809 94.046 106.949 94.046C107.079 94.046 107.182 94.0833 107.257 94.158C107.331 94.2233 107.369 94.3307 107.369 94.48V98.89H107.215C107.373 98.3393 107.677 97.9007 108.125 97.574C108.573 97.2473 109.114 97.084 109.749 97.084C110.365 97.084 110.897 97.2287 111.345 97.518C111.793 97.8073 112.138 98.2133 112.381 98.736C112.633 99.2587 112.759 99.8793 112.759 100.598C112.759 101.317 112.633 101.942 112.381 102.474C112.138 102.997 111.788 103.403 111.331 103.692C110.883 103.972 110.355 104.112 109.749 104.112ZM109.623 103.398C110.08 103.398 110.477 103.291 110.813 103.076C111.158 102.852 111.424 102.53 111.611 102.11C111.797 101.69 111.891 101.186 111.891 100.598C111.891 99.7113 111.685 99.0253 111.275 98.54C110.864 98.0547 110.313 97.812 109.623 97.812C109.165 97.812 108.764 97.924 108.419 98.148C108.083 98.3627 107.821 98.68 107.635 99.1C107.448 99.5107 107.355 100.01 107.355 100.598C107.355 101.494 107.56 102.185 107.971 102.67C108.381 103.155 108.932 103.398 109.623 103.398ZM117.521 104.112C116.821 104.112 116.219 103.972 115.715 103.692C115.211 103.412 114.824 103.011 114.553 102.488C114.283 101.965 114.147 101.345 114.147 100.626C114.147 99.9167 114.283 99.3007 114.553 98.778C114.824 98.246 115.197 97.8307 115.673 97.532C116.159 97.2333 116.714 97.084 117.339 97.084C117.797 97.084 118.198 97.1633 118.543 97.322C118.898 97.4713 119.197 97.6907 119.439 97.98C119.691 98.26 119.883 98.6053 120.013 99.016C120.144 99.4173 120.209 99.8747 120.209 100.388C120.209 100.519 120.172 100.617 120.097 100.682C120.032 100.747 119.939 100.78 119.817 100.78H114.763V100.15H119.677L119.453 100.332C119.453 99.7907 119.374 99.3333 119.215 98.96C119.057 98.5773 118.819 98.2833 118.501 98.078C118.193 97.8727 117.811 97.77 117.353 97.77C116.84 97.77 116.406 97.8913 116.051 98.134C115.697 98.3673 115.431 98.694 115.253 99.114C115.076 99.5247 114.987 100.001 114.987 100.542V100.612C114.987 101.508 115.207 102.199 115.645 102.684C116.084 103.16 116.7 103.398 117.493 103.398C117.839 103.398 118.17 103.351 118.487 103.258C118.814 103.165 119.131 103.006 119.439 102.782C119.533 102.717 119.621 102.684 119.705 102.684C119.799 102.684 119.873 102.707 119.929 102.754C119.995 102.801 120.037 102.861 120.055 102.936C120.083 103.001 120.079 103.076 120.041 103.16C120.013 103.235 119.953 103.305 119.859 103.37C119.561 103.613 119.201 103.799 118.781 103.93C118.361 104.051 117.941 104.112 117.521 104.112ZM122.384 104.084C122.244 104.084 122.137 104.047 122.062 103.972C121.987 103.897 121.95 103.79 121.95 103.65V97.56C121.95 97.4107 121.987 97.2987 122.062 97.224C122.137 97.1493 122.244 97.112 122.384 97.112C122.515 97.112 122.613 97.1493 122.678 97.224C122.753 97.2987 122.79 97.4107 122.79 97.56V98.806H122.65C122.818 98.2553 123.117 97.8307 123.546 97.532C123.985 97.2333 124.507 97.0793 125.114 97.07C125.226 97.0607 125.319 97.084 125.394 97.14C125.469 97.196 125.506 97.2847 125.506 97.406C125.515 97.5367 125.487 97.6393 125.422 97.714C125.357 97.7793 125.249 97.8213 125.1 97.84L124.904 97.854C124.241 97.9193 123.728 98.1387 123.364 98.512C123 98.8853 122.818 99.3893 122.818 100.024V103.65C122.818 103.79 122.781 103.897 122.706 103.972C122.641 104.047 122.533 104.084 122.384 104.084Z" fill="white"/>
</g>
<defs>
<linearGradient id="paint0_linear_2254_186" x1="3.50001" y1="4.49999" x2="224.5" y2="150" gradientUnits="userSpaceOnUse">
<stop stop-color="#122839"/>
<stop offset="1" stop-color="#2C78B2"/>
</linearGradient>
<clipPath id="clip0_2254_186">
<rect width="350" height="150" rx="10" fill="white"/>
</clipPath>
</defs>
</svg>
