<svg width="136" height="23" viewBox="0 0 136 23" fill="none" xmlns="http://www.w3.org/2000/svg">
<path fill-rule="evenodd" clip-rule="evenodd" d="M1.81655 5.05618C1.8165 5.90454 2.14595 6.71817 2.73243 7.31809C3.31891 7.918 4.11437 8.25506 4.94383 8.25511C5.7733 8.25517 6.56881 7.91821 7.15536 7.31837C7.74192 6.71853 8.07147 5.90494 8.07153 5.05658C8.07158 4.20822 7.74213 3.39459 7.15565 2.79467C6.56917 2.19476 5.7737 1.8577 4.94424 1.85765C4.11478 1.85759 3.31927 2.19455 2.73271 2.79439C2.14616 3.39423 1.8166 4.20782 1.81655 5.05618ZM4.94372 10.1124C3.8853 10.1123 2.85489 9.76463 2.00408 9.12071C1.15327 8.47679 0.526988 7.57058 0.217378 6.5354C-0.0922327 5.50023 -0.0688243 4.39075 0.284159 3.37019C0.637142 2.34964 1.30106 1.4719 2.17824 0.866112C3.05541 0.260326 4.09953 -0.0415201 5.15697 0.00498298C6.21441 0.0514861 7.22934 0.443883 8.05243 1.12444C8.87553 1.805 9.46333 2.73779 9.72935 3.78556C9.99538 4.83334 9.92558 5.94078 9.53023 6.94496L11.4752 8.2741C11.461 8.32063 11.4475 8.36741 11.4349 8.41443L11.1241 9.54945L10.4118 10.0364L8.40624 8.66601C7.51435 9.55954 6.29156 10.1125 4.94372 10.1124ZM1.81576 17.4693C1.81582 16.621 2.14537 15.8074 2.73193 15.2075C3.31848 14.6077 4.11399 14.2707 4.94345 14.2708C5.77291 14.2709 6.56838 14.6079 7.15486 15.2078C7.74134 15.8077 8.07079 16.6214 8.07074 17.4697C8.07068 18.3181 7.74113 19.1317 7.15457 19.7315C6.56802 20.3314 5.77251 20.6683 4.94305 20.6683C4.11359 20.6682 3.31812 20.3312 2.73164 19.7312C2.14516 19.1313 1.81571 18.3177 1.81576 17.4693ZM4.94357 12.4135C3.88608 12.4135 2.85648 12.7604 2.00599 13.4032C1.1555 14.0459 0.528951 14.9507 0.21837 15.9846C-0.0922115 17.0185 -0.0704544 18.127 0.280445 19.1473C0.631345 20.1676 1.29289 21.0459 2.16792 21.6532C3.04294 22.2606 4.08533 22.5649 5.14197 22.5215C6.19861 22.4782 7.2138 22.0894 8.03845 21.4123C8.8631 20.7352 9.45372 19.8055 9.72358 18.7598C9.99344 17.714 9.92831 16.6073 9.53775 15.6022L30.1659 1.53634L28.2471 1.69816C25.5411 1.98921 22.9206 2.83703 20.5432 4.19062L14.3384 7.71915C14.1054 7.85226 13.9006 8.03133 13.7357 8.24599C13.5708 8.46065 13.4492 8.70663 13.3779 8.96969L12.8673 10.8394L8.42205 13.8789C7.4977 12.9391 6.24693 12.4122 4.94357 12.4135ZM14.3138 14.8183L14.338 14.8327L20.5423 18.362C22.9195 19.7159 25.5399 20.5641 28.2459 20.8555L29.736 20.8555L27.9687 19.4609L25.3467 17.7765L17.6755 12.5175L14.3138 14.8183Z" fill="#2C78B2"/>
<path d="M57.0011 4.14864C57.0012 2.46424 57.9383 1.52545 59.5368 1.52555L63.037 1.52577C64.6355 1.52588 65.6001 2.46478 65.6 4.14918L65.6 4.61861L62.4304 6.27519L62.4305 4.56318L60.1429 4.56303L60.1426 9.39533L65.5998 6.57914L65.5991 18.0662C65.599 19.7506 64.6343 20.6894 63.0358 20.6893L59.5356 20.6891C57.9371 20.689 57.0001 19.75 57.0002 18.0656L57.0003 16.2708L60.1423 14.6418L60.1421 17.6517L62.4296 17.6518L62.43 11.6321L57.0004 14.4759L57.0011 4.14864Z" fill="#2C78B2"/>
<path d="M57.0011 4.14864C57.0012 2.46424 57.9383 1.52545 59.5368 1.52555L63.037 1.52577C64.6355 1.52588 65.6001 2.46478 65.6 4.14918L65.6 4.61861L62.4304 6.27519L62.4305 4.56318L60.1429 4.56303L60.1426 9.39533L65.5998 6.57914L65.5991 18.0662C65.599 19.7506 64.6343 20.6894 63.0358 20.6893L59.5356 20.6891C57.9371 20.689 57.0001 19.75 57.0002 18.0656L57.0003 16.2708L60.1423 14.6418L60.1421 17.6517L62.4296 17.6518L62.43 11.6321L57.0004 14.4759L57.0011 4.14864Z" fill="#2C78B2"/>
<path d="M36.4587 4.5951L36.4576 20.6935L39.5455 18.5254L39.5455 4.5953L41.8606 4.59544L45.0008 4.59496L45.0008 1.53043L42.4671 1.53043L39.8213 1.53026L36.2108 1.53003L33.7579 1.52987L31.001 1.53043L31.001 4.59496L34.1711 4.59496L36.4587 4.5951Z" fill="#2C78B2"/>
<path d="M55.8315 17.6245L53.544 17.6244L50.4572 17.6242L48.1421 17.624L48.1431 1.52559L45.0012 1.52539L45.0002 18.0656C45.0001 19.75 45.9371 20.689 47.5356 20.6891L50.1814 20.6892L53.7919 20.6895L55.8315 17.6245Z" fill="#2C78B2"/>
<path d="M78.568 8.34618L78.5683 4.48035L76.0327 4.48019L76.0324 9.58861L78.568 8.34618ZM81.5996 10.5002L81.5991 18.0386C81.599 19.8334 80.6894 20.6894 78.7877 20.6893L73 20.6889L73.0012 1.52539L79.037 1.52577C80.6355 1.52588 81.6001 2.46478 81.6 4.14918L81.5997 8.1807C81.5996 9.42329 81.2138 10.1688 80.2491 10.5001L81.5996 10.5002ZM78.5674 17.707L78.5678 11.5493L76.0322 12.8193L76.0319 17.7069L78.5674 17.707Z" fill="white"/>
<path d="M92.4725 20.6901L89.3306 20.6899L89.3311 12.5717L87.0159 13.7589L87.0155 20.6898L83.8735 20.6896L83.8746 4.14933C83.8747 2.46493 84.8118 1.52614 86.4103 1.52624L89.9105 1.52646C91.5091 1.52657 92.4736 2.46547 92.4735 4.14987L92.4725 20.6901ZM89.3313 9.20287L89.3316 4.56387L87.0165 4.56372L87.0161 10.3349L89.3313 9.20287Z" fill="white"/>
<path d="M100.259 9.25879L100.259 4.56456L97.9438 4.56442L97.9435 10.4184L100.259 9.25879ZM103.4 11.0262L101.085 12.2135L104.668 20.6909L101.388 20.6907L98.4118 13.5939L97.9432 13.8424L97.9428 20.6905L94.8009 20.6903L94.8021 1.52677L100.838 1.52716C102.436 1.52726 103.401 2.46617 103.401 4.15057L103.4 11.0262Z" fill="white"/>
<path d="M111.216 8.34826L111.216 4.48242L108.68 4.48226L108.68 9.59069L111.216 8.34826ZM114.247 10.5023L114.247 18.0407C114.246 19.8355 113.337 20.6915 111.435 20.6913L105.648 20.691L105.649 1.52746L111.685 1.52785C113.283 1.52795 114.248 2.46685 114.247 4.15125L114.247 8.18277C114.247 9.42536 113.861 10.1709 112.897 10.5022L114.247 10.5023ZM111.215 17.7091L111.215 11.5514L108.68 12.8214L108.679 17.7089L111.215 17.7091Z" fill="white"/>
<path d="M124.1 20.6921L116.521 20.6917L116.522 1.52815L124.101 1.52863L124.101 4.59369L119.664 4.59341L119.664 9.53616L124.101 7.29978L124.101 10.7238L119.663 12.9878L119.663 17.6268L124.1 17.6271L124.1 20.6921Z" fill="white"/>
<path d="M131.48 9.26077L131.48 4.56654L129.165 4.5664L129.165 10.4204L131.48 9.26077ZM134.621 11.0282L132.306 12.2154L135.889 20.6929L132.609 20.6927L129.633 13.5959L129.164 13.8444L129.164 20.6925L126.022 20.6923L126.023 1.52876L132.059 1.52914C133.657 1.52924 134.622 2.46815 134.622 4.15255L134.621 11.0282Z" fill="white"/>
</svg>
